<?xml version="1.0" standalone="no"?>
<!DOCTYPE svg PUBLIC "-//W3C//DTD SVG 20010904//EN"
 "http://www.w3.org/TR/2001/REC-SVG-20010904/DTD/svg10.dtd">
<svg version="1.0" xmlns="http://www.w3.org/2000/svg"
 width="512.000000pt" height="512.000000pt" viewBox="0 0 512.000000 512.000000"
 preserveAspectRatio="xMidYMid meet">

<g transform="translate(0.000000,512.000000) scale(0.100000,-0.100000)"
fill="#000000" stroke="none">
<path d="M1340 4111 c0 -413 4 -629 11 -648 14 -38 67 -92 106 -109 38 -17
111 -18 150 -3 30 11 88 62 106 94 8 13 14 103 17 255 5 223 6 237 27 266 35
49 71 68 128 68 63 0 109 -30 136 -88 17 -39 19 -79 19 -709 0 -599 2 -673 16
-704 53 -111 215 -125 292 -25 l27 35 5 521 c5 519 5 521 27 552 35 49 71 68
128 68 63 0 109 -30 136 -88 15 -34 19 -66 19 -184 0 -112 4 -152 16 -179 53
-111 215 -125 292 -25 l27 35 5 421 c5 415 5 421 27 452 35 49 71 68 128 68
59 0 105 -27 133 -77 15 -29 17 -87 22 -628 l5 -595 28 -42 c15 -23 46 -54 69
-69 36 -24 51 -28 118 -28 67 0 82 4 118 28 23 15 54 46 69 69 l28 42 3 923 2
923 -1220 0 -1220 0 0 -619z"/>
<path d="M4610 3510 c-11 -11 -20 -33 -20 -50 0 -17 9 -39 20 -50 11 -11 33
-20 50 -20 17 0 39 9 50 20 11 11 20 33 20 50 0 17 -9 39 -20 50 -11 11 -33
20 -50 20 -17 0 -39 -9 -50 -20z"/>
<path d="M410 2460 c-43 -43 -11 -120 50 -120 38 0 70 32 70 70 0 38 -32 70
-70 70 -17 0 -39 -9 -50 -20z"/>
<path d="M1688 985 l-246 -445 146 0 147 0 340 437 c187 240 342 440 343 445
2 4 -106 8 -240 8 l-243 0 -247 -445z"/>
<path d="M2440 985 l0 -445 145 0 145 0 0 445 0 445 -145 0 -145 0 0 -445z"/>
<path d="M2752 1422 c2 -5 156 -205 343 -445 l340 -437 147 0 146 0 -246 445
-247 445 -243 0 c-134 0 -242 -4 -240 -8z"/>
<path d="M3781 1154 c-12 -15 -21 -34 -21 -44 0 -34 39 -70 75 -70 36 0 75 36
75 70 0 34 -39 70 -75 70 -24 0 -39 -7 -54 -26z"/>
<path d="M4355 1161 c-99 -46 -141 -158 -96 -256 70 -152 282 -152 352 0 75
162 -94 331 -256 256z"/>
<path d="M1160 1010 c-11 -11 -20 -33 -20 -50 0 -17 9 -39 20 -50 11 -11 33
-20 50 -20 17 0 39 9 50 20 11 11 20 33 20 50 0 17 -9 39 -20 50 -11 11 -33
20 -50 20 -17 0 -39 -9 -50 -20z"/>
<path d="M535 856 c-192 -91 -192 -351 0 -442 66 -31 134 -31 200 0 192 91
192 351 0 442 -32 15 -68 24 -100 24 -32 0 -68 -9 -100 -24z"/>
</g>
</svg>
